<svg width="40" height="36" viewBox="0 0 40 36" fill="none" xmlns="http://www.w3.org/2000/svg">
<path d="M39.9811 2.21865C40.0192 1.98963 39.9968 1.75464 39.9162 1.53694C39.8355 1.31923 39.6995 1.12635 39.5214 0.977376C39.3433 0.828407 39.1295 0.728512 38.9009 0.687577C38.6724 0.646642 38.4372 0.666086 38.2185 0.743984L0.88513 14.0773C0.639044 14.1651 0.424161 14.3232 0.267175 14.532C0.110188 14.7409 0.0180164 14.9912 0.00210829 15.252C-0.0137998 15.5128 0.0472571 15.7725 0.177695 15.9989C0.308132 16.2252 0.502202 16.4083 0.735797 16.5253L11.4025 21.8586C11.6127 21.9639 11.847 22.0116 12.0816 21.9971C12.3162 21.9826 12.5428 21.9063 12.7385 21.776L21.5918 15.872L16.2931 22.5013C16.1778 22.6456 16.0938 22.8123 16.0462 22.9908C15.9987 23.1693 15.9888 23.3557 16.0172 23.5382C16.0455 23.7207 16.1114 23.8954 16.2108 24.0511C16.3102 24.2068 16.4408 24.3401 16.5945 24.4427L32.5945 35.1093C32.7797 35.2325 32.9929 35.3074 33.2145 35.3271C33.4361 35.3468 33.6592 35.3108 33.8633 35.2222C34.0674 35.1337 34.2461 34.9955 34.3831 34.8202C34.5202 34.6449 34.6111 34.4381 34.6478 34.2187L39.9811 2.21865Z" fill="black"/>
</svg>
