<svg width="36" height="21" viewBox="0 0 36 21" fill="none" xmlns="http://www.w3.org/2000/svg">
<path d="M33.8383 20.635H30.0367C28.5983 20.635 28.165 19.47 25.5867 16.89C23.3333 14.7184 22.3817 14.4484 21.8117 14.4484C21.0233 14.4484 20.8083 14.665 20.8083 15.75V19.17C20.8083 20.095 20.5083 20.6367 18.0917 20.6367C15.7472 20.4792 13.4736 19.7669 11.4583 18.5586C9.44296 17.3503 7.74354 15.6805 6.5 13.6867C3.54731 10.0117 1.49285 5.69849 0.5 1.09003C0.5 0.520026 0.716667 0.00335998 1.80333 0.00335998H5.60333C6.58 0.00335998 6.93167 0.43836 7.315 1.44336C9.16 6.87336 12.3083 11.5967 13.5867 11.5967C14.0767 11.5967 14.29 11.38 14.29 10.1584V4.56503C14.1283 2.01336 12.7733 1.79836 12.7733 0.875027C12.7905 0.631428 12.9019 0.404108 13.084 0.241349C13.266 0.0785896 13.5043 -0.0067847 13.7483 0.00335998H19.7217C20.5383 0.00335998 20.8083 0.410026 20.8083 1.38669V8.93669C20.8083 9.75169 21.1583 10.0217 21.405 10.0217C21.895 10.0217 22.2717 9.75169 23.17 8.85503C25.0956 6.50667 26.6688 3.89031 27.84 1.08836C27.9599 0.751949 28.1865 0.463984 28.4853 0.268388C28.7841 0.0727929 29.1387 -0.0196971 29.495 0.00502652H33.2967C34.4367 0.00502652 34.6783 0.575027 34.4367 1.38836C33.054 4.48572 31.3431 7.42586 29.3333 10.1584C28.9233 10.7834 28.76 11.1084 29.3333 11.8417C29.71 12.4117 31.0433 13.525 31.9383 14.5834C33.2417 15.8834 34.3233 17.3867 35.1417 19.0334C35.4683 20.0934 34.9233 20.635 33.8383 20.635Z" fill="black"/>
</svg>
